<svg id="Layer_1" data-name="Layer 1" xmlns="http://www.w3.org/2000/svg" viewBox="0 0 140 140"><defs><style>.cls-1{fill:#ef3f3f;}.cls-2,.cls-3{fill:#fff;stroke:#000;stroke-miterlimit:10;}.cls-3{fill-rule:evenodd;}</style></defs><title>logo</title><rect class="cls-1" width="140" height="140"/><path class="cls-2" d="M607.52,1440a2.85,2.85,0,0,1-1.93.45h-3.45a3,3,0,0,1-2-.45,2.68,2.68,0,0,1-.49-1.93v-6.4H592.2v7.55q0,7.23,7.64,7.23h8q7.72,0,7.72-7.23v-14.78q0-7.22-7.55-7.23h-6a3,3,0,0,1-2-.45,2.68,2.68,0,0,1-.49-1.93v-11.41a2.69,2.69,0,0,1,.49-1.93,3.06,3.06,0,0,1,2-.45h3.45a3.06,3.06,0,0,1,2,.45,2.69,2.69,0,0,1,.49,1.93v6.4h7.47v-7.55q0-7.23-7.64-7.23h-8q-7.64,0-7.64,7.23v13.55q0,7.31,7.47,7.31h6.08a1.88,1.88,0,0,1,2.38,2.38v12.56A2.86,2.86,0,0,1,607.52,1440Z" transform="translate(-552.21 -1389)"/><path class="cls-2" d="M646.24,1401.49l4.68,27.1h-9Zm15.19,45-9.77-51.41H640.9l-9.12,51.41h7.39l1.89-11.91H651.9l2.05,11.91h7.47Z" transform="translate(-552.21 -1389)"/><path class="cls-2" d="M616,1463.9q0-7.22-7.64-7.23h-8.79q-7.64,0-7.64,7.23v37q0,7.31,7.64,7.31h8.79q7.64,0,7.64-7.31v-19.22H604.44v5.75h4.11V1500a2.68,2.68,0,0,1-.49,1.93,3,3,0,0,1-2,.45h-4.19a3,3,0,0,1-2-.45,2.68,2.68,0,0,1-.49-1.93v-35.06a2.68,2.68,0,0,1,.49-1.93,3.05,3.05,0,0,1,2-.45h4.19a3.05,3.05,0,0,1,2,.45,2.68,2.68,0,0,1,.49,1.93v6.82H616v-7.8Z" transform="translate(-552.21 -1389)"/><path class="cls-2" d="M643.36,1484.51h11.83v-6H643.36v-15.85h14.29v-6H635.89v51.41h22.34v-6H643.36v-17.57Z" transform="translate(-552.21 -1389)"/><path class="cls-3" d="M592.41,1516.35h65.7v6.57h-65.7v-6.57Z" transform="translate(-552.21 -1389)"/></svg>